<svg xmlns="http://www.w3.org/2000/svg" xmlns:xlink="http://www.w3.org/1999/xlink" width="500" zoomAndPan="magnify" viewBox="0 0 375 374.999991" height="500" preserveAspectRatio="xMidYMid meet" version="1.0"><defs><clipPath id="62c766c5fa"><path d="M 25.300781 32.601562 L 348 32.601562 L 348 337 L 25.300781 337 Z M 25.300781 32.601562 " clip-rule="nonzero"/></clipPath></defs><g clip-path="url(#62c766c5fa)"><path fill="#000000" d="M 245.378906 32.796875 C 238.5 32.890625 228.722656 34.105469 215.277344 36.511719 C 207.941406 37.824219 206.136719 38.460938 204.199219 40.421875 C 201.984375 42.660156 201.875 43.171875 201.628906 52.296875 C 201.378906 61.660156 201.414062 61.855469 203.46875 63.195312 C 204.617188 63.945312 208.464844 67.105469 212.019531 70.214844 C 220.320312 77.488281 221.765625 77.570312 230.097656 71.246094 C 233.71875 68.492188 233.90625 67.515625 230.824219 67.460938 C 229.269531 67.4375 224.078125 65.082031 225.410156 65.007812 C 225.707031 64.988281 228.882812 65.960938 232.476562 67.167969 C 243.589844 69.921875 247.914062 58.3125 256.726562 54.152344 C 274.828125 58.109375 268.050781 82.667969 282.46875 103.609375 C 290.683594 118.929688 297.671875 120.898438 316.296875 113.144531 C 317.414062 112.679688 317.722656 112.769531 317.3125 113.429688 C 316.390625 114.921875 303.695312 118.628906 299.511719 118.628906 C 294.265625 118.628906 290.75 116.933594 287.234375 112.707031 L 284.21875 109.082031 C 268.355469 106.675781 257.886719 113.746094 253.28125 121.394531 C 252.46875 122.367188 235.085938 134.304688 233.480469 140.078125 C 232.589844 125.515625 249.585938 121.546875 248.5 121.394531 C 233.773438 124.078125 197.234375 122.582031 187.925781 136.390625 C 178.722656 121.671875 188.898438 106.722656 190.558594 100.964844 C 192.644531 93.953125 191.371094 86.386719 187.621094 80.292969 C 187.136719 78.242188 185.5625 76.460938 184.027344 74.996094 C 181.476562 72.5625 178.175781 70.953125 175.871094 68.300781 C 173.421875 65.484375 171.9375 61.519531 168.046875 60.207031 C 161.421875 57.972656 154.335938 60.054688 148.09375 62.441406 C 144.429688 63.839844 140.632812 64.820312 136.671875 65.082031 C 133.320312 65.304688 126.585938 61.609375 126.625 64.949219 C 126.648438 66.976562 133.660156 63.585938 131.710938 64.757812 C 129.882812 65.863281 127.992188 66.441406 125.65625 66.769531 C 121.644531 67.335938 117.632812 67.8125 113.558594 67.929688 C 112.671875 67.957031 111.195312 67.417969 113.027344 68.058594 C 115.921875 69.074219 118.25 70.792969 121.292969 71.910156 C 124.300781 73.015625 119.382812 73.585938 118.285156 73.667969 C 111.960938 74.132812 105.125 75.710938 99.257812 73.253906 C 98.074219 72.757812 97.234375 72.835938 98.25 74.179688 C 100.425781 77.054688 104.25 77.808594 107.519531 78.851562 C 108.789062 79.253906 112.210938 79.839844 111.996094 79.859375 C 107.808594 80.234375 104.707031 84.429688 100.347656 83.8125 C 99.148438 83.640625 98.175781 83.722656 99.800781 84.421875 C 106.167969 87.171875 111.902344 91.753906 118.695312 93.347656 C 117.53125 96.15625 117.753906 98.601562 119.242188 102.496094 C 120.585938 106.011719 120.570312 106.25 118.683594 110.277344 C 117.609375 112.558594 111.433594 116.332031 110.355469 117.035156 C 107.726562 118.753906 114.414062 118.972656 117.425781 122.121094 C 119.65625 124.453125 118.613281 127.753906 117.792969 129.824219 C 122.667969 129.261719 120.90625 130.113281 125.082031 131.207031 C 121.132812 131.648438 118.777344 132.839844 119.53125 133.992188 C 122.023438 137.792969 125.453125 141.699219 130.976562 147.59375 C 140.578125 144.246094 143.835938 140.359375 146.09375 141.527344 C 152.046875 144.597656 152.671875 148.050781 148.554688 155.066406 C 146.101562 159.246094 144.71875 159.925781 135.0625 161.707031 C 120.640625 164.363281 108.386719 172.253906 103.972656 181.722656 C 98.902344 188.9375 104.378906 203.273438 104.378906 203.273438 C 104.378906 203.273438 96.835938 195.964844 99.554688 185.59375 C 85.398438 190.59375 76.503906 180.65625 62.726562 195.828125 C 59.746094 200.324219 59.238281 199.339844 62.058594 194.535156 C 64.109375 191.035156 64.273438 190.171875 63.757812 185.371094 C 63.445312 182.457031 62.082031 176.90625 60.730469 173.03125 C 57.800781 164.652344 56.097656 153.273438 56.9375 147.695312 C 57.417969 144.472656 57.761719 143.855469 58.65625 144.597656 C 62.742188 147.984375 69.300781 147.101562 73.148438 142.648438 C 74.421875 141.171875 76.5 139.441406 77.765625 138.800781 C 81.832031 136.742188 83.441406 131.898438 83.441406 121.730469 C 83.441406 113.140625 87.96875 108 84.777344 108.734375 C 80.441406 109.730469 59.390625 96.054688 56.640625 98.550781 C 49.066406 101.15625 44.175781 123.15625 37.695312 129.191406 C 37.726562 144.460938 35.367188 160.785156 31.5 173.117188 C 25.835938 190.867188 25.246094 193.761719 25.25 203.71875 C 25.257812 213.953125 27.335938 223.398438 31.042969 230.046875 C 32.179688 232.078125 32.902344 234.390625 32.648438 235.1875 C 32.308594 236.25 33.085938 237.074219 35.597656 238.3125 C 38.96875 239.980469 39.089844 239.980469 46.742188 238.445312 C 67.59375 231.976562 75.527344 256.441406 109.855469 234.90625 C 115.238281 240.460938 102.480469 262.96875 112.589844 268.671875 C 112.589844 268.671875 133.066406 266.777344 137.988281 264.5625 C 135.335938 270.296875 112.628906 274.988281 112.628906 274.988281 C 103.976562 281.453125 119.894531 306.09375 107.082031 326.253906 C 107.011719 326.367188 106.945312 326.46875 106.945312 326.488281 C 106.945312 327.761719 125.976562 316.617188 138.273438 317.917969 C 145.429688 318.671875 168.300781 323.972656 175.402344 330.777344 C 187.292969 342.167969 211.597656 332.113281 217.613281 329.230469 C 221.15625 314.917969 214.792969 287.660156 205.273438 276.855469 C 202.910156 274.238281 202.515625 273.269531 202.941406 271.128906 C 203.3125 269.285156 203.164062 268.648438 202.417969 268.886719 C 192.210938 279.476562 182.402344 284.480469 179.976562 303.441406 C 179.964844 277.90625 196.234375 274.171875 201.316406 267.121094 C 209.375 255.945312 223.609375 242.800781 234.820312 234.460938 C 237.28125 232.628906 204.457031 230.59375 204.320312 213.625 C 207.699219 229.992188 245.042969 227.441406 246.742188 226.023438 C 253.015625 220.792969 259.300781 213.191406 264.695312 204.230469 C 268.71875 197.539062 273.695312 186.804688 273.0625 186.171875 C 269.960938 188.742188 262.65625 192.113281 261 188.164062 C 264.109375 190.753906 271.203125 183.636719 275.019531 182.40625 C 301.582031 175.453125 315.128906 161.105469 332.339844 134.480469 C 336.632812 127.84375 346.582031 108.269531 347.363281 104.925781 C 349.902344 94.050781 330.1875 70.605469 304.199219 53.605469 C 284.261719 40.5625 271.707031 35.6875 251.316406 33.070312 C 249.640625 32.855469 247.671875 32.761719 245.378906 32.796875 Z M 245.378906 32.796875 " fill-opacity="1" fill-rule="nonzero"/></g></svg>