<svg xmlns="http://www.w3.org/2000/svg" xmlns:xlink="http://www.w3.org/1999/xlink" width="5000" zoomAndPan="magnify" viewBox="0 0 3750 1124.99995" height="1500" preserveAspectRatio="xMidYMid meet" version="1.0"><defs><g/></defs><g fill="#0d9488" fill-opacity="1"><g transform="translate(1.910239, 778.124913)"><g><path d="M 170.59375 -424.546875 L 170.59375 -293.671875 L 347.234375 -293.671875 L 347.234375 -201.109375 L 170.59375 -201.109375 L 170.59375 0 L 50.015625 0 L 50.015625 -516.765625 L 382.703125 -516.765625 L 382.703125 -424.546875 Z M 170.59375 -424.546875 "/></g></g></g><g fill="#0d9488" fill-opacity="1"><g transform="translate(403.766287, 778.124913)"><g><path d="M 149.671875 -367.796875 L 149.671875 0 L 39.71875 0 L 39.71875 -367.796875 Z M 161.03125 -468.53125 C 161.03125 -459.78125 159.253906 -451.5625 155.703125 -443.875 C 152.160156 -436.195312 147.3125 -429.457031 141.15625 -423.65625 C 135.007812 -417.863281 127.859375 -413.253906 119.703125 -409.828125 C 111.546875 -406.398438 102.859375 -404.6875 93.640625 -404.6875 C 84.648438 -404.6875 76.253906 -406.398438 68.453125 -409.828125 C 60.648438 -413.253906 53.734375 -417.863281 47.703125 -423.65625 C 41.671875 -429.457031 36.941406 -436.195312 33.515625 -443.875 C 30.085938 -451.5625 28.375 -459.78125 28.375 -468.53125 C 28.375 -477.519531 30.085938 -485.914062 33.515625 -493.71875 C 36.941406 -501.519531 41.671875 -508.375 47.703125 -514.28125 C 53.734375 -520.195312 60.648438 -524.804688 68.453125 -528.109375 C 76.253906 -531.421875 84.648438 -533.078125 93.640625 -533.078125 C 102.859375 -533.078125 111.546875 -531.421875 119.703125 -528.109375 C 127.859375 -524.804688 135.007812 -520.195312 141.15625 -514.28125 C 147.3125 -508.375 152.160156 -501.519531 155.703125 -493.71875 C 159.253906 -485.914062 161.03125 -477.519531 161.03125 -468.53125 Z M 161.03125 -468.53125 "/></g></g></g><g fill="#0d9488" fill-opacity="1"><g transform="translate(593.167041, 778.124913)"><g><path d="M 168.828125 5.671875 C 151.328125 5.671875 135.894531 3.128906 122.53125 -1.953125 C 109.175781 -7.035156 97.945312 -14.242188 88.84375 -23.578125 C 79.738281 -32.921875 72.820312 -44.210938 68.09375 -57.453125 C 63.363281 -70.691406 61 -85.472656 61 -101.796875 L 61 -291.90625 L 29.796875 -291.90625 C 24.117188 -291.90625 19.269531 -293.734375 15.25 -297.390625 C 11.226562 -301.054688 9.21875 -306.4375 9.21875 -313.53125 L 9.21875 -356.453125 L 67.75 -367.796875 L 89.375 -457.53125 C 92.21875 -468.882812 100.257812 -474.5625 113.5 -474.5625 L 170.953125 -474.5625 L 170.953125 -367.09375 L 262.109375 -367.09375 L 262.109375 -291.90625 L 170.953125 -291.90625 L 170.953125 -109.234375 C 170.953125 -100.722656 173.019531 -93.6875 177.15625 -88.125 C 181.300781 -82.570312 187.273438 -79.796875 195.078125 -79.796875 C 199.097656 -79.796875 202.46875 -80.207031 205.1875 -81.03125 C 207.90625 -81.863281 210.269531 -82.8125 212.28125 -83.875 C 214.289062 -84.945312 216.179688 -85.894531 217.953125 -86.71875 C 219.722656 -87.539062 221.789062 -87.953125 224.15625 -87.953125 C 227.46875 -87.953125 230.128906 -87.179688 232.140625 -85.640625 C 234.148438 -84.109375 236.21875 -81.691406 238.34375 -78.390625 L 271.6875 -26.25 C 257.5 -15.601562 241.535156 -7.617188 223.796875 -2.296875 C 206.066406 3.015625 187.742188 5.671875 168.828125 5.671875 Z M 168.828125 5.671875 "/></g></g></g><g fill="#0d9488" fill-opacity="1"><g transform="translate(865.563733, 778.124913)"><g><path d="M 398.3125 -133.71875 C 401.144531 -133.71875 403.976562 -133.179688 406.8125 -132.109375 C 409.65625 -131.046875 412.375 -129.21875 414.96875 -126.625 L 462.5 -76.609375 C 441.695312 -49.421875 415.628906 -28.910156 384.296875 -15.078125 C 352.960938 -1.242188 315.898438 5.671875 273.109375 5.671875 C 233.847656 5.671875 198.671875 -1.003906 167.578125 -14.359375 C 136.492188 -27.722656 110.132812 -46.164062 88.5 -69.6875 C 66.863281 -93.21875 50.25 -121.117188 38.65625 -153.390625 C 27.070312 -185.671875 21.28125 -220.726562 21.28125 -258.5625 C 21.28125 -297.101562 27.546875 -332.507812 40.078125 -364.78125 C 52.609375 -397.0625 70.222656 -424.90625 92.921875 -448.3125 C 115.617188 -471.71875 142.8125 -489.921875 174.5 -502.921875 C 206.1875 -515.929688 241.066406 -522.4375 279.140625 -522.4375 C 298.523438 -522.4375 316.785156 -520.722656 333.921875 -517.296875 C 351.066406 -513.867188 367.085938 -509.140625 381.984375 -503.109375 C 396.878906 -497.078125 410.59375 -489.804688 423.125 -481.296875 C 435.664062 -472.785156 446.78125 -463.566406 456.46875 -453.640625 L 416.046875 -399.375 C 413.441406 -396.0625 410.363281 -393.046875 406.8125 -390.328125 C 403.269531 -387.609375 398.304688 -386.25 391.921875 -386.25 C 387.660156 -386.25 383.640625 -387.191406 379.859375 -389.078125 C 376.078125 -390.972656 372.054688 -393.28125 367.796875 -396 C 363.546875 -398.71875 358.878906 -401.671875 353.796875 -404.859375 C 348.710938 -408.054688 342.679688 -411.015625 335.703125 -413.734375 C 328.722656 -416.453125 320.5625 -418.753906 311.21875 -420.640625 C 301.882812 -422.535156 290.953125 -423.484375 278.421875 -423.484375 C 258.554688 -423.484375 240.40625 -419.816406 223.96875 -412.484375 C 207.539062 -405.160156 193.351562 -394.460938 181.40625 -380.390625 C 169.46875 -366.328125 160.25 -349.066406 153.75 -328.609375 C 147.25 -308.160156 144 -284.8125 144 -258.5625 C 144 -232.082031 147.601562 -208.554688 154.8125 -187.984375 C 162.03125 -167.410156 171.84375 -150.085938 184.25 -136.015625 C 196.664062 -121.953125 211.148438 -111.253906 227.703125 -103.921875 C 244.253906 -96.585938 261.988281 -92.921875 280.90625 -92.921875 C 291.78125 -92.921875 301.707031 -93.453125 310.6875 -94.515625 C 319.675781 -95.585938 328.070312 -97.363281 335.875 -99.84375 C 343.6875 -102.320312 351.019531 -105.628906 357.875 -109.765625 C 364.726562 -113.910156 371.703125 -119.175781 378.796875 -125.5625 C 381.628906 -127.925781 384.703125 -129.875 388.015625 -131.40625 C 391.328125 -132.945312 394.757812 -133.71875 398.3125 -133.71875 Z M 398.3125 -133.71875 "/></g></g></g><g fill="#0d9488" fill-opacity="1"><g transform="translate(1330.55344, 778.124913)"><g><path d="M 206.78125 -373.484375 C 234.675781 -373.484375 260.09375 -369.109375 283.03125 -360.359375 C 305.96875 -351.609375 325.648438 -339.070312 342.078125 -322.75 C 358.515625 -306.4375 371.285156 -286.632812 380.390625 -263.34375 C 389.492188 -240.050781 394.046875 -213.863281 394.046875 -184.78125 C 394.046875 -155.46875 389.492188 -129.046875 380.390625 -105.515625 C 371.285156 -81.984375 358.515625 -62 342.078125 -45.5625 C 325.648438 -29.132812 305.96875 -16.488281 283.03125 -7.625 C 260.09375 1.238281 234.675781 5.671875 206.78125 5.671875 C 178.644531 5.671875 153.046875 1.238281 129.984375 -7.625 C 106.929688 -16.488281 87.070312 -29.132812 70.40625 -45.5625 C 53.738281 -62 40.851562 -81.984375 31.75 -105.515625 C 22.644531 -129.046875 18.09375 -155.46875 18.09375 -184.78125 C 18.09375 -213.863281 22.644531 -240.050781 31.75 -263.34375 C 40.851562 -286.632812 53.738281 -306.4375 70.40625 -322.75 C 87.070312 -339.070312 106.929688 -351.609375 129.984375 -360.359375 C 153.046875 -369.109375 178.644531 -373.484375 206.78125 -373.484375 Z M 206.78125 -75.90625 C 232.082031 -75.90625 250.703125 -84.828125 262.640625 -102.671875 C 274.578125 -120.523438 280.546875 -147.660156 280.546875 -184.078125 C 280.546875 -220.492188 274.578125 -247.566406 262.640625 -265.296875 C 250.703125 -283.035156 232.082031 -291.90625 206.78125 -291.90625 C 180.769531 -291.90625 161.734375 -283.035156 149.671875 -265.296875 C 137.617188 -247.566406 131.59375 -220.492188 131.59375 -184.078125 C 131.59375 -147.660156 137.617188 -120.523438 149.671875 -102.671875 C 161.734375 -84.828125 180.769531 -75.90625 206.78125 -75.90625 Z M 206.78125 -75.90625 "/></g></g></g><g fill="#0d9488" fill-opacity="1"><g transform="translate(1742.695437, 778.124913)"><g><path d="M 227 -149.671875 C 205.007812 -148.722656 186.921875 -146.832031 172.734375 -144 C 158.546875 -141.164062 147.3125 -137.617188 139.03125 -133.359375 C 130.757812 -129.097656 125.023438 -124.25 121.828125 -118.8125 C 118.640625 -113.375 117.046875 -107.460938 117.046875 -101.078125 C 117.046875 -88.546875 120.472656 -79.738281 127.328125 -74.65625 C 134.179688 -69.570312 144.234375 -67.03125 157.484375 -67.03125 C 171.671875 -67.03125 184.082031 -69.515625 194.71875 -74.484375 C 205.351562 -79.453125 216.113281 -87.488281 227 -98.59375 Z M 29.078125 -316.734375 C 51.304688 -336.359375 75.957031 -350.957031 103.03125 -360.53125 C 130.101562 -370.101562 159.128906 -374.890625 190.109375 -374.890625 C 212.335938 -374.890625 232.375 -371.285156 250.21875 -364.078125 C 268.070312 -356.867188 283.207031 -346.816406 295.625 -333.921875 C 308.039062 -321.035156 317.554688 -305.726562 324.171875 -288 C 330.796875 -270.269531 334.109375 -250.878906 334.109375 -229.828125 L 334.109375 0 L 283.75 0 C 273.34375 0 265.476562 -1.414062 260.15625 -4.25 C 254.832031 -7.09375 250.398438 -13.003906 246.859375 -21.984375 L 239.046875 -42.203125 C 229.828125 -34.398438 220.960938 -27.539062 212.453125 -21.625 C 203.941406 -15.71875 195.132812 -10.695312 186.03125 -6.5625 C 176.925781 -2.425781 167.226562 0.644531 156.9375 2.65625 C 146.65625 4.664062 135.25 5.671875 122.71875 5.671875 C 105.925781 5.671875 90.671875 3.484375 76.953125 -0.890625 C 63.242188 -5.265625 51.601562 -11.707031 42.03125 -20.21875 C 32.457031 -28.726562 25.066406 -39.304688 19.859375 -51.953125 C 14.660156 -64.609375 12.0625 -79.210938 12.0625 -95.765625 C 12.0625 -109.003906 15.367188 -122.421875 21.984375 -136.015625 C 28.609375 -149.609375 40.078125 -162.019531 56.390625 -173.25 C 72.703125 -184.488281 94.691406 -193.890625 122.359375 -201.453125 C 150.023438 -209.023438 184.90625 -213.28125 227 -214.21875 L 227 -229.828125 C 227 -251.347656 222.5625 -266.894531 213.6875 -276.46875 C 204.820312 -286.050781 192.234375 -290.84375 175.921875 -290.84375 C 162.910156 -290.84375 152.269531 -289.421875 144 -286.578125 C 135.726562 -283.742188 128.335938 -280.550781 121.828125 -277 C 115.328125 -273.457031 109.003906 -270.265625 102.859375 -267.421875 C 96.710938 -264.585938 89.378906 -263.171875 80.859375 -263.171875 C 73.296875 -263.171875 66.910156 -265.0625 61.703125 -268.84375 C 56.503906 -272.625 52.253906 -277.117188 48.953125 -282.328125 Z M 29.078125 -316.734375 "/></g></g></g><g fill="#0d9488" fill-opacity="1"><g transform="translate(2109.792573, 778.124913)"><g><path d="M 307.5 -280.546875 C 304.195312 -276.523438 301.003906 -273.332031 297.921875 -270.96875 C 294.847656 -268.601562 290.476562 -267.421875 284.8125 -267.421875 C 279.375 -267.421875 274.46875 -268.722656 270.09375 -271.328125 C 265.71875 -273.929688 260.8125 -276.828125 255.375 -280.015625 C 249.9375 -283.210938 243.550781 -286.109375 236.21875 -288.703125 C 228.882812 -291.304688 219.78125 -292.609375 208.90625 -292.609375 C 195.425781 -292.609375 183.78125 -290.125 173.96875 -285.15625 C 164.15625 -280.195312 156.054688 -273.101562 149.671875 -263.875 C 143.285156 -254.65625 138.554688 -243.363281 135.484375 -230 C 132.410156 -216.644531 130.875 -201.570312 130.875 -184.78125 C 130.875 -149.550781 137.671875 -122.476562 151.265625 -103.5625 C 164.867188 -84.644531 183.609375 -75.1875 207.484375 -75.1875 C 220.253906 -75.1875 230.363281 -76.78125 237.8125 -79.96875 C 245.257812 -83.164062 251.582031 -86.710938 256.78125 -90.609375 C 261.988281 -94.515625 266.78125 -98.125 271.15625 -101.4375 C 275.53125 -104.75 281.023438 -106.40625 287.640625 -106.40625 C 296.390625 -106.40625 303.007812 -103.210938 307.5 -96.828125 L 339.421875 -57.453125 C 328.078125 -44.453125 316.140625 -33.875 303.609375 -25.71875 C 291.078125 -17.5625 278.25 -11.175781 265.125 -6.5625 C 252 -1.945312 238.816406 1.242188 225.578125 3.015625 C 212.335938 4.785156 199.453125 5.671875 186.921875 5.671875 C 164.453125 5.671875 142.988281 1.414062 122.53125 -7.09375 C 102.082031 -15.601562 84.113281 -27.957031 68.625 -44.15625 C 53.144531 -60.351562 40.851562 -80.273438 31.75 -103.921875 C 22.644531 -127.566406 18.09375 -154.519531 18.09375 -184.78125 C 18.09375 -211.269531 22.050781 -236.039062 29.96875 -259.09375 C 37.894531 -282.144531 49.597656 -302.125 65.078125 -319.03125 C 80.566406 -335.9375 99.71875 -349.238281 122.53125 -358.9375 C 145.351562 -368.632812 171.78125 -373.484375 201.8125 -373.484375 C 230.65625 -373.484375 255.953125 -368.867188 277.703125 -359.640625 C 299.460938 -350.421875 319.09375 -336.945312 336.59375 -319.21875 Z M 307.5 -280.546875 "/></g></g></g><g fill="#0d9488" fill-opacity="1"><g transform="translate(2454.899291, 778.124913)"><g><path d="M 147.1875 -335.53125 C 160.425781 -346.875 174.789062 -356.035156 190.28125 -363.015625 C 205.769531 -369.992188 224.273438 -373.484375 245.796875 -373.484375 C 265.890625 -373.484375 283.679688 -369.992188 299.171875 -363.015625 C 314.660156 -356.035156 327.722656 -346.335938 338.359375 -333.921875 C 349.003906 -321.515625 357.046875 -306.738281 362.484375 -289.59375 C 367.921875 -272.445312 370.640625 -253.828125 370.640625 -233.734375 L 370.640625 0 L 260.6875 0 L 260.6875 -233.734375 C 260.6875 -251.703125 256.546875 -265.710938 248.265625 -275.765625 C 239.992188 -285.816406 227.820312 -290.84375 211.75 -290.84375 C 199.6875 -290.84375 188.394531 -288.300781 177.875 -283.21875 C 167.351562 -278.132812 157.125 -271.21875 147.1875 -262.46875 L 147.1875 0 L 37.234375 0 L 37.234375 -530.953125 L 147.1875 -530.953125 Z M 147.1875 -335.53125 "/></g></g></g><g fill="#0d9488" fill-opacity="1"><g transform="translate(2859.238063, 778.124913)"><g/></g></g><g fill="#0d9488" fill-opacity="1"><g transform="translate(3023.101694, 778.124913)"><g><path d="M 323.109375 -197.5625 L 275.234375 -339.078125 C 271.679688 -348.054688 267.894531 -358.632812 263.875 -370.8125 C 259.863281 -382.988281 255.847656 -396.171875 251.828125 -410.359375 C 248.273438 -395.941406 244.488281 -382.582031 240.46875 -370.28125 C 236.445312 -357.988281 232.664062 -347.347656 229.125 -338.359375 L 181.59375 -197.5625 Z M 513.578125 0 L 420.65625 0 C 410.25 0 401.851562 -2.421875 395.46875 -7.265625 C 389.082031 -12.117188 384.234375 -18.328125 380.921875 -25.890625 L 350.421875 -115.984375 L 153.9375 -115.984375 L 123.421875 -25.890625 C 120.828125 -19.265625 116.160156 -13.289062 109.421875 -7.96875 C 102.679688 -2.65625 94.34375 0 84.40625 0 L -9.21875 0 L 190.8125 -516.765625 L 313.53125 -516.765625 Z M 513.578125 0 "/></g></g></g><g fill="#0d9488" fill-opacity="1"><g transform="translate(3527.461088, 778.124913)"><g><path d="M 170.59375 0 L 50.015625 0 L 50.015625 -516.765625 L 170.59375 -516.765625 Z M 170.59375 0 "/></g></g></g></svg>