<svg xmlns="http://www.w3.org/2000/svg" xmlns:xlink="http://www.w3.org/1999/xlink" width="500" zoomAndPan="magnify" viewBox="0 0 375 374.999991" height="500" preserveAspectRatio="xMidYMid meet" version="1.0"><defs><clipPath id="eeb8adc828"><path d="M 25.300781 32.601562 L 348 32.601562 L 348 337 L 25.300781 337 Z M 25.300781 32.601562 " clip-rule="nonzero"/></clipPath></defs><g clip-path="url(#eeb8adc828)"><path fill="#ffffff" d="M 245.132812 32.796875 C 238.261719 32.890625 228.496094 34.105469 215.0625 36.511719 C 207.738281 37.824219 205.933594 38.464844 204 40.421875 C 201.785156 42.664062 201.675781 43.171875 201.433594 52.296875 C 201.183594 61.667969 201.214844 61.859375 203.269531 63.199219 C 204.417969 63.949219 208.261719 67.109375 211.808594 70.222656 C 220.101562 77.496094 221.546875 77.578125 229.867188 71.25 C 233.488281 68.496094 233.675781 67.519531 230.59375 67.46875 C 229.042969 67.441406 223.855469 65.085938 225.1875 65.011719 C 225.480469 64.996094 228.65625 65.96875 232.242188 67.171875 C 243.347656 69.925781 247.664062 58.316406 256.46875 54.152344 C 274.546875 58.113281 267.777344 82.675781 282.179688 103.621094 C 290.386719 118.941406 297.367188 120.910156 315.972656 113.15625 C 317.085938 112.691406 317.398438 112.78125 316.988281 113.441406 C 316.066406 114.933594 303.386719 118.640625 299.207031 118.640625 C 293.964844 118.640625 290.453125 116.945312 286.941406 112.722656 L 283.929688 109.09375 C 268.082031 106.6875 257.625 113.757812 253.023438 121.40625 C 252.214844 122.378906 234.851562 134.320312 233.246094 140.09375 C 232.355469 125.53125 249.335938 121.558594 248.25 121.410156 C 233.539062 124.09375 197.042969 122.597656 187.742188 136.40625 C 178.550781 121.683594 188.714844 106.734375 190.375 100.976562 C 192.460938 93.960938 191.1875 86.394531 187.441406 80.300781 C 186.957031 78.25 185.382812 76.46875 183.847656 75.003906 C 181.300781 72.566406 178.003906 70.960938 175.703125 68.304688 C 173.257812 65.488281 171.773438 61.527344 167.886719 60.214844 C 161.269531 57.976562 154.191406 60.058594 147.957031 62.445312 C 144.296875 63.84375 140.503906 64.824219 136.546875 65.085938 C 133.199219 65.308594 126.472656 61.613281 126.511719 64.953125 C 126.535156 66.984375 133.539062 63.589844 131.59375 64.765625 C 129.765625 65.867188 127.878906 66.445312 125.546875 66.773438 C 121.535156 67.339844 117.53125 67.816406 113.460938 67.9375 C 112.574219 67.960938 111.097656 67.425781 112.925781 68.066406 C 115.820312 69.078125 118.144531 70.800781 121.1875 71.917969 C 124.191406 73.019531 119.277344 73.59375 118.183594 73.675781 C 111.863281 74.136719 105.035156 75.714844 99.175781 73.257812 C 97.992188 72.761719 97.152344 72.84375 98.167969 74.183594 C 100.34375 77.0625 104.160156 77.816406 107.425781 78.855469 C 108.695312 79.261719 112.113281 79.847656 111.898438 79.867188 C 107.714844 80.242188 104.617188 84.4375 100.265625 83.820312 C 99.066406 83.648438 98.09375 83.730469 99.71875 84.429688 C 106.078125 87.179688 111.804688 91.761719 118.59375 93.355469 C 117.429688 96.164062 117.648438 98.613281 119.136719 102.507812 C 120.480469 106.023438 120.464844 106.261719 118.578125 110.289062 C 117.507812 112.570312 111.335938 116.34375 110.261719 117.046875 C 107.636719 118.769531 114.3125 118.988281 117.324219 122.136719 C 119.550781 124.46875 118.507812 127.769531 117.6875 129.839844 C 122.558594 129.277344 120.800781 130.125 124.972656 131.222656 C 121.027344 131.660156 118.671875 132.855469 119.425781 134.007812 C 121.914062 137.808594 125.339844 141.714844 130.859375 147.609375 C 140.449219 144.261719 143.703125 140.375 145.960938 141.542969 C 151.902344 144.617188 152.53125 148.066406 148.414062 155.085938 C 145.964844 159.265625 144.585938 159.945312 134.941406 161.726562 C 120.535156 164.382812 108.292969 172.273438 103.882812 181.746094 C 98.820312 188.960938 104.289062 203.300781 104.289062 203.300781 C 104.289062 203.300781 96.757812 195.988281 99.472656 185.617188 C 85.332031 190.621094 76.449219 180.679688 62.683594 195.855469 C 59.707031 200.351562 59.199219 199.363281 62.015625 194.558594 C 64.066406 191.058594 64.230469 190.195312 63.714844 185.394531 C 63.402344 182.480469 62.042969 176.925781 60.691406 173.054688 C 57.765625 164.671875 56.0625 153.292969 56.902344 147.710938 C 57.382812 144.488281 57.726562 143.871094 58.621094 144.613281 C 62.703125 148 69.25 147.121094 73.09375 142.664062 C 74.367188 141.1875 76.445312 139.457031 77.707031 138.816406 C 81.765625 136.757812 83.375 131.914062 83.375 121.742188 C 83.375 113.152344 87.902344 108.011719 84.710938 108.746094 C 80.378906 109.742188 59.351562 96.0625 56.605469 98.558594 C 49.039062 101.164062 44.15625 123.171875 37.679688 129.207031 C 37.710938 144.476562 35.355469 160.804688 31.492188 173.140625 C 25.835938 190.894531 25.246094 193.785156 25.25 203.742188 C 25.257812 213.984375 27.332031 223.429688 31.039062 230.078125 C 32.171875 232.109375 32.890625 234.421875 32.640625 235.21875 C 32.300781 236.28125 33.078125 237.105469 35.585938 238.34375 C 38.953125 240.011719 39.074219 240.011719 46.71875 238.476562 C 67.546875 232.007812 75.472656 256.472656 109.761719 234.9375 C 115.140625 240.496094 102.394531 263 112.492188 268.710938 C 112.492188 268.710938 132.945312 266.8125 137.863281 264.597656 C 135.210938 270.332031 112.53125 275.023438 112.53125 275.023438 C 103.890625 281.488281 119.789062 306.136719 106.992188 326.296875 C 106.917969 326.410156 106.851562 326.515625 106.851562 326.535156 C 106.851562 327.808594 125.863281 316.660156 138.148438 317.960938 C 145.296875 318.714844 168.140625 324.019531 175.234375 330.820312 C 187.113281 342.214844 211.386719 332.15625 217.398438 329.277344 C 220.9375 314.960938 214.582031 287.699219 205.070312 276.890625 C 202.710938 274.277344 202.316406 273.304688 202.746094 271.164062 C 203.113281 269.320312 202.964844 268.683594 202.21875 268.921875 C 192.023438 279.511719 182.226562 284.519531 179.800781 303.484375 C 179.792969 277.941406 196.042969 274.210938 201.121094 267.15625 C 209.167969 255.980469 223.386719 242.832031 234.585938 234.492188 C 237.042969 232.660156 204.257812 230.621094 204.117188 213.652344 C 207.496094 230.019531 244.796875 227.472656 246.496094 226.054688 C 252.761719 220.820312 259.039062 213.21875 264.425781 204.253906 C 268.445312 197.566406 273.414062 186.828125 272.785156 186.195312 C 269.6875 188.765625 262.390625 192.136719 260.734375 188.1875 C 263.84375 190.777344 270.929688 183.65625 274.738281 182.429688 C 301.269531 175.472656 314.804688 161.125 331.996094 134.496094 C 336.285156 127.855469 346.222656 108.28125 347.003906 104.9375 C 349.539062 94.058594 329.847656 70.613281 303.886719 53.605469 C 283.972656 40.5625 271.429688 35.6875 251.066406 33.070312 C 249.390625 32.855469 247.421875 32.761719 245.132812 32.796875 Z M 245.132812 32.796875 " fill-opacity="1" fill-rule="nonzero"/></g></svg>