<svg xmlns="http://www.w3.org/2000/svg" xmlns:xlink="http://www.w3.org/1999/xlink" width="500" zoomAndPan="magnify" viewBox="0 0 375 374.999991" height="500" preserveAspectRatio="xMidYMid meet" version="1.0"><defs><clipPath id="c1869918eb"><path d="M 187.5 0 C 83.945312 0 0 83.945312 0 187.5 C 0 291.054688 83.945312 375 187.5 375 C 291.054688 375 375 291.054688 375 187.5 C 375 83.945312 291.054688 0 187.5 0 Z M 187.5 0 " clip-rule="nonzero"/></clipPath><clipPath id="ac47169f85"><path d="M 49.890625 56.082031 L 324 56.082031 L 324 314 L 49.890625 314 Z M 49.890625 56.082031 " clip-rule="nonzero"/></clipPath></defs><g clip-path="url(#c1869918eb)"><rect x="-37.5" width="450" fill="#0cc0df" y="-37.499999" height="449.999989" fill-opacity="1"/></g><g clip-path="url(#ac47169f85)"><path fill="#000000" d="M 236.421875 56.242188 C 230.59375 56.320312 222.304688 57.351562 210.90625 59.390625 C 204.691406 60.503906 203.160156 61.046875 201.519531 62.707031 C 199.640625 64.605469 199.546875 65.035156 199.339844 72.769531 C 199.128906 80.707031 199.15625 80.871094 200.898438 82.003906 C 201.875 82.640625 205.136719 85.320312 208.144531 87.957031 C 215.179688 94.121094 216.40625 94.191406 223.46875 88.828125 C 226.539062 86.496094 226.699219 85.667969 224.082031 85.621094 C 222.769531 85.601562 218.367188 83.605469 219.496094 83.539062 C 219.746094 83.527344 222.441406 84.351562 225.484375 85.371094 C 234.90625 87.707031 238.570312 77.871094 246.039062 74.339844 C 261.382812 77.695312 255.636719 98.507812 267.855469 116.257812 C 274.820312 129.238281 280.746094 130.90625 296.53125 124.335938 C 297.476562 123.941406 297.738281 124.019531 297.390625 124.578125 C 296.609375 125.84375 285.847656 128.984375 282.304688 128.984375 C 277.855469 128.984375 274.875 127.550781 271.898438 123.96875 L 269.339844 120.894531 C 255.894531 118.855469 247.019531 124.847656 243.117188 131.328125 C 242.429688 132.152344 227.695312 142.269531 226.335938 147.160156 C 225.582031 134.820312 239.988281 131.457031 239.066406 131.332031 C 226.585938 133.605469 195.617188 132.335938 187.726562 144.035156 C 179.925781 131.5625 188.550781 118.894531 189.957031 114.015625 C 191.726562 108.070312 190.644531 101.660156 187.46875 96.496094 C 187.058594 94.757812 185.722656 93.25 184.417969 92.007812 C 182.257812 89.945312 179.460938 88.582031 177.507812 86.332031 C 175.433594 83.945312 174.171875 80.585938 170.878906 79.476562 C 165.261719 77.578125 159.253906 79.34375 153.964844 81.367188 C 150.859375 82.554688 147.640625 83.382812 144.28125 83.605469 C 141.445312 83.792969 135.734375 80.660156 135.769531 83.492188 C 135.789062 85.210938 141.730469 82.335938 140.078125 83.332031 C 138.53125 84.265625 136.929688 84.757812 134.949219 85.035156 C 131.546875 85.515625 128.148438 85.917969 124.695312 86.019531 C 123.941406 86.042969 122.691406 85.585938 124.242188 86.128906 C 126.695312 86.988281 128.667969 88.445312 131.25 89.390625 C 133.800781 90.328125 129.628906 90.8125 128.699219 90.882812 C 123.339844 91.273438 117.546875 92.613281 112.574219 90.527344 C 111.570312 90.109375 110.859375 90.175781 111.71875 91.3125 C 113.5625 93.753906 116.804688 94.390625 119.574219 95.273438 C 120.652344 95.617188 123.550781 96.113281 123.371094 96.128906 C 119.820312 96.445312 117.191406 100 113.496094 99.476562 C 112.480469 99.332031 111.652344 99.402344 113.035156 99.996094 C 118.429688 102.324219 123.289062 106.210938 129.046875 107.558594 C 128.0625 109.941406 128.25 112.011719 129.511719 115.3125 C 130.648438 118.292969 130.636719 118.492188 129.035156 121.90625 C 128.128906 123.839844 122.890625 127.035156 121.980469 127.632812 C 119.75 129.089844 125.417969 129.277344 127.972656 131.945312 C 129.863281 133.921875 128.976562 136.71875 128.28125 138.472656 C 132.414062 137.996094 130.921875 138.71875 134.460938 139.648438 C 131.113281 140.015625 129.113281 141.03125 129.753906 142.007812 C 131.867188 145.226562 134.773438 148.535156 139.457031 153.53125 C 147.59375 150.695312 150.355469 147.402344 152.269531 148.390625 C 157.3125 150.996094 157.84375 153.917969 154.355469 159.867188 C 152.277344 163.410156 151.105469 163.984375 142.921875 165.492188 C 130.695312 167.746094 120.308594 174.429688 116.566406 182.457031 C 112.269531 188.570312 116.914062 200.71875 116.914062 200.71875 C 116.914062 200.71875 110.519531 194.523438 112.824219 185.738281 C 100.828125 189.976562 93.289062 181.554688 81.609375 194.410156 C 79.085938 198.222656 78.652344 197.386719 81.042969 193.3125 C 82.785156 190.347656 82.917969 189.617188 82.484375 185.550781 C 82.21875 183.078125 81.0625 178.375 79.917969 175.09375 C 77.433594 167.988281 75.992188 158.347656 76.703125 153.617188 C 77.113281 150.886719 77.402344 150.363281 78.160156 150.992188 C 81.625 153.863281 87.179688 153.117188 90.441406 149.339844 C 91.523438 148.089844 93.285156 146.621094 94.355469 146.078125 C 97.800781 144.335938 99.167969 140.230469 99.167969 131.613281 C 99.167969 124.332031 103.003906 119.976562 100.300781 120.597656 C 96.625 121.441406 78.78125 109.851562 76.453125 111.96875 C 70.03125 114.175781 65.886719 132.824219 60.394531 137.9375 C 60.417969 150.878906 58.421875 164.710938 55.144531 175.164062 C 50.34375 190.207031 49.839844 192.65625 49.847656 201.097656 C 49.851562 209.773438 51.613281 217.777344 54.757812 223.410156 C 55.71875 225.132812 56.328125 227.09375 56.117188 227.765625 C 55.828125 228.667969 56.488281 229.363281 58.617188 230.417969 C 61.472656 231.828125 61.574219 231.828125 68.0625 230.527344 C 85.734375 225.046875 92.460938 245.777344 121.554688 227.527344 C 126.117188 232.238281 115.304688 251.308594 123.875 256.144531 C 123.875 256.144531 141.230469 254.539062 145.398438 252.664062 C 143.148438 257.519531 123.90625 261.496094 123.90625 261.496094 C 116.574219 266.976562 130.0625 287.859375 119.203125 304.941406 C 119.144531 305.039062 119.085938 305.128906 119.085938 305.144531 C 119.085938 306.222656 135.21875 296.777344 145.644531 297.878906 C 151.707031 298.519531 171.089844 303.011719 177.109375 308.777344 C 187.1875 318.429688 207.789062 309.910156 212.890625 307.46875 C 215.890625 295.335938 210.496094 272.234375 202.429688 263.078125 C 200.425781 260.863281 200.089844 260.039062 200.453125 258.226562 C 200.765625 256.664062 200.640625 256.125 200.007812 256.324219 C 191.355469 265.300781 183.042969 269.542969 180.984375 285.613281 C 180.976562 263.96875 194.769531 260.804688 199.078125 254.832031 C 205.902344 245.359375 217.96875 234.21875 227.472656 227.148438 C 229.558594 225.601562 201.738281 223.871094 201.621094 209.492188 C 204.484375 223.363281 236.136719 221.203125 237.578125 220 C 242.894531 215.566406 248.21875 209.125 252.792969 201.53125 C 256.203125 195.859375 260.421875 186.761719 259.882812 186.226562 C 257.257812 188.40625 251.066406 191.261719 249.660156 187.914062 C 252.296875 190.109375 258.308594 184.078125 261.542969 183.035156 C 284.054688 177.140625 295.539062 164.984375 310.128906 142.421875 C 313.765625 136.792969 322.199219 120.207031 322.859375 117.371094 C 325.011719 108.15625 308.300781 88.289062 286.273438 73.878906 C 269.378906 62.824219 258.734375 58.691406 241.453125 56.476562 C 240.035156 56.292969 238.363281 56.214844 236.421875 56.242188 Z M 236.421875 56.242188 " fill-opacity="1" fill-rule="nonzero"/></g></svg>